<?xml version="1.0" encoding="utf-8"?>
<!-- Generator: Adobe Illustrator 23.0.0, SVG Export Plug-In . SVG Version: 6.00 Build 0)  -->
<svg version="1.1" id="Capa_1" xmlns="http://www.w3.org/2000/svg" xmlns:xlink="http://www.w3.org/1999/xlink" x="0px" y="0px"
	 viewBox="0 0 122 96" style="enable-background:new 0 0 122 96;" xml:space="preserve">
<style type="text/css">
	.st0{fill:#FF7D00;}
	.st1{fill:#FFFFFF;}
</style>
<g>
	<path class="st0" d="M35.3,81.6c-0.8,0.8-1.5,1.5-2.1,2.2c-4.2,4.6-11.9,4.8-16.3,0.4c-1.9-1.8-3.3-3.9-3.8-6.5
		c-0.1-0.6-0.5-0.7-1-0.7c-1.3,0-2.7,0-4,0c-1.5,0-2.1-0.6-2.1-2.1c0-21.4,0-42.7,0-64.2c0-1.7,0.5-2.2,2.2-2.2
		c23.6,0,47.3,0,70.9,0c2.1,0,2.5,0.4,2.5,2.5c0,6.8,0,13.6,0,20.4c0,1,0.3,1.3,1.3,1.3c6.1,0,12.1,0,18.2,0c3.8,0,6.7,2,8.1,5.5
		c2.1,5,4.1,10,6.3,15c0.4,0.9,0.5,1.8,0.5,2.7c0,6.4,0,12.8,0,19.2c0,1.4-0.5,1.9-1.9,1.9c-1.3,0-2.7,0-4,0c-0.7,0-1.1,0.2-1.3,1
		c-1.9,8.7-12,12.4-19,6.9c-2.2-1.7-3.7-4-4.3-6.8c-0.1-0.8-0.5-1.1-1.3-1.1c-8.7,0-17.3,0-25.9,0c-0.8,0-1,0.3-1.2,1
		c-1.8,7.6-9.6,11.5-16.7,8.3c-1.8-0.8-3.2-2.2-4.4-3.7C35.8,82.3,35.6,82,35.3,81.6z M35.3,69.4c0.4-0.5,0.7-0.9,1-1.2
		c2.4-3,5.4-4.6,9.3-4.7c5.4-0.1,10.3,3.8,11.6,9.2c0.2,1,0.7,1.3,1.6,1.3c6.1,0,12.2,0,18.3,0c1.4,0,1.4,0,1.4-1.5
		c0-19.8,0-39.6,0-59.4c0-1.5,0-1.5-1.5-1.5c-22.1,0-44.2,0-66.2,0c-1.5,0-1.5,0-1.5,1.6c0,19.2,0,38.6,0,57.8c0,2.9,0,2.9,2.9,2.9
		c0.7,0,1.1-0.2,1.2-1c0.5-2.7,1.9-4.9,4-6.6c5.6-4.6,12.7-3.4,17.1,2C34.6,68.7,34.9,69,35.3,69.4z M81.6,54.8c0,5.5,0,11.1,0,16.6
		c0,2.6,0,2.6,2.7,2.6c0.9,0,1.2-0.3,1.4-1.1c0.9-4.8,5.7-9.1,11.3-9.3c5.1-0.2,10.1,3.3,11.7,8.2c0.2,0.7,0.4,1.8,0.9,2.1
		c0.6,0.4,1.6,0.1,2.4,0.1c0.8,0.1,1.1-0.3,1.1-1.1c0-5.1,0-10.2,0-15.3c0-0.9-0.3-1.1-1.2-1.1c-5.8,0-11.6,0-17.4,0
		c-1.6,0-2.1-0.5-2.1-2.1c0-5.8,0-11.6,0-17.4c0-0.8-0.2-1.1-1.1-1.1c-2.8,0.1-5.6,0.1-8.4,0c-0.9,0-1.2,0.2-1.2,1.1
		C81.6,42.8,81.6,48.8,81.6,54.8z M112,53.2c-0.1-0.4-0.1-0.6-0.2-0.9c-1.9-4.5-3.7-8.9-5.6-13.4c-0.9-2.2-2.7-3.3-5.1-3.3
		c-1.5,0-3,0-4.5,0c-1,0-1.3,0.3-1.3,1.3c0,5,0,10.1,0,15.1c0,1,0.4,1.3,1.3,1.2c4.7,0,9.4,0,14.1,0C111.1,53.3,111.4,53.3,112,53.2
		z M97.3,84.1c4.9,0,8.8-3.8,8.7-8.8c0-4.9-3.9-8.8-8.8-8.8c-4.9,0-8.8,3.9-8.8,8.8C88.5,80.5,92.2,84.1,97.3,84.1z M45.6,84.1
		c5,0,8.8-3.7,8.8-8.7c0-4.9-3.8-8.8-8.7-8.8c-5,0-8.8,3.8-8.8,8.8C36.8,80.4,40.5,84.1,45.6,84.1z M24.9,84.1c5,0,8.7-3.7,8.8-8.7
		c0.1-5-3.8-8.9-8.8-8.9c-4.9,0-8.8,3.8-8.8,8.8C16.2,80.4,19.8,84.1,24.9,84.1z"/>
	<path class="st1" d="M97.2,80.4c2.7,0,5.1-2.4,5-5c0-2.7-2.4-5-5.1-4.9c-2.6,0-4.9,2.4-4.9,4.9C92.2,77.9,94.5,80.4,97.2,80.4z"/>
	<path class="st1" d="M20,75.4c0,2.8,2.1,5,4.9,5.1c2.8,0,5-2.1,5.1-4.9c0-2.7-2.2-4.9-4.8-5.1C22.6,70.3,19.7,72.9,20,75.4z"/>
	<path class="st0" d="M25.2,41.7c0.2-0.6,0.5-1.6,0.7-2.6c0.1-0.5,0.2-1.1,0-1.5c-1.6-3.9,0.2-7.5,3-9.1c0.4-0.2,0.7-0.7,0.8-1.2
		c1-3.9,3.8-5.9,7.9-5.5c0.3,0,0.8-0.2,1.1-0.4c1.3-1.1,2.8-1.8,4.5-1.9c1.8-0.1,3.4,0.4,4.7,1.6c0.7,0.6,1.3,0.8,2.3,0.7
		c3-0.1,6.1,1.4,7,5.3c0.2,0.8,0.5,1.3,1.2,1.7c3,1.9,4.1,5,2.9,8.4c-0.3,0.9-0.3,1.7,0,2.5c1.2,3.4,0.1,6.5-2.9,8.4
		c-0.6,0.4-1,0.8-1.1,1.6c-0.9,3.7-4.1,5.8-7.8,5.4c-0.4,0-0.9,0.2-1.2,0.4c-1.3,1.1-2.7,1.8-4.4,1.9c-1.8,0.1-3.4-0.4-4.8-1.6
		c-0.7-0.6-1.3-0.8-2.3-0.7c-2.8,0.1-6.1-1.2-7-5.3c-0.2-0.8-0.6-1.3-1.3-1.7C26.4,46.6,25.3,44.6,25.2,41.7z M49.9,51.5
		c2.8,0,3.7-0.6,4.4-3.2c0.4-1.4,1.1-2.4,2.3-3.1c1.9-1.1,2.5-2.7,1.6-4.8c-0.6-1.5-0.6-2.8,0-4.3c0.9-2,0.3-3.6-1.6-4.7
		c-1.2-0.7-2-1.7-2.4-3.1c-0.7-2.5-1.6-3.2-4.2-3.2c-1.6,0.1-2.9-0.4-4.1-1.5c-1.3-1.2-3.2-1.3-4.5-0.1s-2.9,1.7-4.7,1.6
		c-2.2-0.1-3.2,0.8-3.7,2.9c-0.3,1.4-1.1,2.5-2.4,3.3c-2,1.2-2.6,2.8-1.6,4.9c0.6,1.4,0.6,2.7,0,4c-0.9,2.1-0.4,3.7,1.7,4.9
		c1.1,0.7,1.9,1.6,2.2,2.9c0.7,2.7,1.6,3.4,4.4,3.3c1.5,0,2.8,0.4,3.9,1.4c1.4,1.3,3.3,1.3,4.7,0C47.1,51.8,48.5,51.3,49.9,51.5z"/>
	<path class="st0" d="M97.2,80.4c-2.7,0-5.1-2.4-5-5c0-2.6,2.4-4.9,4.9-4.9c2.7,0,5.1,2.3,5.1,4.9C102.3,78.1,99.9,80.4,97.2,80.4z"
		/>
	<path class="st0" d="M45.7,70.5c2.7,0,4.9,2.3,4.9,5c0,2.7-2.3,5-5,5c-2.7,0-5-2.3-4.9-5.1C40.6,72.8,43,70.5,45.7,70.5z"/>
	<path class="st0" d="M20,75.4c-0.2-2.4,2.7-5.1,5.1-4.9c2.6,0.2,4.9,2.4,4.8,5.1c0,2.8-2.3,4.9-5.1,4.9
		C22.1,80.4,19.8,78.2,20,75.4z"/>
	<path class="st0" d="M41,36.3c-1.4,0-2.7-1.4-2.8-2.8c0-1.4,1.4-2.8,2.8-2.8c1.4,0.1,2.7,1.4,2.7,2.8C43.8,34.8,42.3,36.3,41,36.3z
		"/>
	<path class="st0" d="M38.1,42c0,1-1.1,2-2,1.9c-1-0.1-1.9-1-1.9-2c0-0.9,1-1.9,1.9-1.9C37.1,40,38.1,41,38.1,42z"/>
	<path class="st0" d="M50.3,45c0.7,0,1.5,0.8,1.4,1.5c0,0.7-0.8,1.4-1.4,1.4c-0.6,0-1.4-0.7-1.4-1.4S49.6,45,50.3,45z"/>
</g>
</svg>
