<?xml version="1.0" encoding="utf-8"?>
<!-- Generator: Adobe Illustrator 23.0.0, SVG Export Plug-In . SVG Version: 6.00 Build 0)  -->
<svg version="1.1" id="Capa_1" xmlns="http://www.w3.org/2000/svg" xmlns:xlink="http://www.w3.org/1999/xlink" x="0px" y="0px"
	 viewBox="0 0 122 96" style="enable-background:new 0 0 122 96;" xml:space="preserve">
<style type="text/css">
	.st0{fill:#FF7D00;}
</style>
<path class="st0" d="M26.7,27.7c0.1-0.6,0.3-1.5,0.6-2.4c0.3-0.6,0.1-1.1-0.4-1.6c-0.6-0.6-1.4-1.3-2-1.9c-0.9-0.9-0.9-1.4,0-2.3
	c0.1-0.1,0.4-0.4,0.5-0.5c0.8-0.8,0.8-1-0.1-1.6c-2.9-2-5.9-4-8.8-6.2c-2.3-1.6-3.2-4.3-2.4-6.9C14.7,2,17.1,0,19.6,0
	c2.1,0,4,0.9,5.2,2.8c1.9,2.9,3.8,5.9,5.7,9c0.8,1.1,0.9,1.3,1.9,0.3c0.9-0.9,1.3-0.9,2.3,0c0.6,0.6,1.3,1.3,1.9,1.9
	c0.5,0.5,0.9,0.6,1.5,0.3c3.4-1.5,6.3-0.9,9,1.8c5.6,5.6,11.1,11.1,16.7,16.7c3.8,3.8,7.6,7.6,11.4,11.4
	c5.6,5.6,11.1,11.1,16.7,16.5c1.8,1.8,3.4,3.8,3.3,6.4c0,1.1-0.3,2.3-0.8,3.3c-0.4,0.9-0.1,1.5,0.5,2c0.6,0.6,1.4,1.3,2,1.9
	c0.9,0.9,0.9,1.5,0,2.4c-1.3,1.4-1.3,1.4,0.3,2.5c2.8,1.9,5.6,3.8,8.2,5.8c2.3,1.6,3,4,2.4,6.7c-0.6,2.4-2.9,4.3-5.4,4.4
	c-2.3,0.1-4.2-0.9-5.4-2.8c-1.6-3-3.5-6.2-5.4-9.2c-0.5-0.9-0.8-0.9-1.5-0.1c-1.3,1.3-1.5,1.3-2.8,0c-0.8-0.8-1.4-1.5-2.1-2.1
	c-0.3-0.3-0.9-0.5-1.3-0.4c-3.7,1.1-6.7,0.1-9.2-2.5c-3.5-3.7-7.2-7.2-10.7-10.7c-4-4-8-8-12-12c-4.7-4.7-9.2-9.3-13.9-13.9
	c-2.8-2.8-5.6-5.6-8.3-8.5C27.6,32.1,26.9,30.2,26.7,27.7z M41.5,15.8c-1.5-0.3-2.9,0.5-3.9,1.6c-2.1,2.1-4.3,4.4-6.6,6.6
	c-2.5,2.3-2.4,6.1,0,8.3c1.1,1,2.1,2.1,3.3,3.3c6.3,6.3,12.6,12.6,18.9,18.9c4.8,4.8,9.6,9.6,14.4,14.4c3,3,6.1,6.1,9.1,9.1
	c2,1.9,5.4,2.1,7.5,0c0.8-0.8,1.5-1.4,2.3-2.1c1.8-1.8,3.5-3.5,5.1-5.3c1.1-1.3,1.5-2.9,1.1-4.7c-0.4-1.5-1.4-2.5-2.4-3.5
	c-7.1-7.3-14.4-14.7-21.6-21.9C64.5,36.4,60.2,32.2,56,28c-3.5-3.5-7.1-7.1-10.6-10.6C44.4,16.3,43.1,15.7,41.5,15.8z M105.9,89.9
	c0-1.4-0.5-2.4-1.5-3.2c-3.2-2.3-6.4-4.4-9.6-6.7c-0.6-0.4-1-0.3-1.4,0.1c-0.5,0.5-1.1,0.9-0.5,1.8c0.5,0.8,1,1.5,1.4,2.3
	c1.6,2.7,3.3,5.3,4.9,7.8c0.9,1.4,2.7,1.8,4.3,1.1C105,92.8,105.9,91.4,105.9,89.9z M16.2,6.1c0,1.3,0.4,2.4,1.4,3
	c3.2,2.3,6.4,4.4,9.6,6.7c0.6,0.4,1,0.3,1.4-0.3c0.4-0.5,1.1-0.9,0.5-1.8c-0.8-1-1.4-2.1-2-3.2c-1.5-2.3-2.9-4.7-4.5-6.9
	c-0.9-1.3-2.7-1.6-4-1.1C17.1,3.3,16.2,4.4,16.2,6.1z M88.3,81.7c0.4-0.3,0.5-0.4,0.8-0.6c1.4-1.4,2.9-2.8,4.2-4.2
	c1.8-1.9,1.9-1.1,0-3.2c-0.6-0.6-1-0.5-1.5,0c-1.5,1.6-3.2,3.2-4.7,4.7c-1,1-1,1,0,2.1C87.6,81,87.9,81.3,88.3,81.7z M35.5,15.8
	c-0.5-0.4-1-0.9-1.6-1.3c-0.3-0.1-0.8,0.1-1,0.4c-1.6,1.6-3.3,3.3-4.9,4.9c-0.5,0.5-0.6,0.9,0,1.4c1.1,1.1,1.3,1.1,2,0.4
	c1.8-1.6,3.4-3.4,5.1-5.1C35.2,16.4,35.2,16.3,35.5,15.8z"/>
<path class="st0" d="M80.4,74.5c-0.4,0.4-0.5,0.9-0.9,1s-0.9,0-1.3-0.1c-0.8-0.5-1.3-1.1-1.9-1.8c-4.5-4.5-9.1-9.1-13.6-13.6
	c-0.1-0.1-0.3-0.3-0.4-0.4c-0.5-0.5-0.9-1.1-0.3-1.8c0.6-0.6,1.4-0.4,1.9,0.1c1.8,1.8,3.5,3.5,5.3,5.3c3.3,3.3,6.7,6.7,10,10
	C79.7,73.6,80,74,80.4,74.5z"/>
<path class="st0" d="M43.7,20c0.1,0.1,0.5,0.3,0.8,0.5c4.8,4.8,9.6,9.6,14.4,14.4c0.3,0.3,0.6,0.5,0.8,0.9c0.4,0.5,0.4,1.1-0.3,1.6
	c-0.5,0.5-1,0.4-1.5,0c-0.8-0.8-1.5-1.4-2.1-2.1c-4.2-4.2-8.3-8.5-12.6-12.6c-0.3-0.3-0.5-0.5-0.6-0.9C42.1,21,42.6,20,43.7,20z"/>
</svg>
