<?xml version="1.0" encoding="utf-8"?>
<!-- Generator: Adobe Illustrator 23.0.0, SVG Export Plug-In . SVG Version: 6.00 Build 0)  -->
<svg version="1.1" id="Capa_1" xmlns="http://www.w3.org/2000/svg" xmlns:xlink="http://www.w3.org/1999/xlink" x="0px" y="0px"
	 viewBox="0 0 124.5 97.1" style="enable-background:new 0 0 124.5 97.1;" xml:space="preserve">
<style type="text/css">
	.st0{fill:#FF7D00;}
</style>
<path class="st0" d="M96.9,37.7c-3.4-5.4,1.1-16.3,7.5-18.3C106.7,26.2,103.4,34.2,96.9,37.7z"/>
<path class="st0" d="M79.1,50.5c4.1,4.5,4.3,11.1,0.6,17.8C74.5,65.3,74.2,56.1,79.1,50.5z"/>
<path class="st0" d="M100.4,51.1c-3.5,7.3-8.9,10.8-14.9,9.7C86.6,54.6,94.4,49.4,100.4,51.1z"/>
<path class="st0" d="M70.5,78.7c-4-5.3-2.8-12.8,2.9-17.5C76.9,65.7,75.5,73.9,70.5,78.7z"/>
<path class="st0" d="M71.8,95.1C66.3,98.6,59,97.9,54,93.5C57.7,88.5,68.1,90.1,71.8,95.1z"/>
<path class="st0" d="M85.2,39.1c4.3,3.9,4.5,12.4,0.4,17.7C80.7,52.5,80.5,44.4,85.2,39.1z"/>
<path class="st0" d="M102.6,37.8c-0.9,7.6-6.7,13.4-12.3,12.7C89.8,45,95.5,39,102.6,37.8z"/>
<path class="st0" d="M60.4,87.3C56.9,81.5,59,73.8,65,70.1C67.9,74.9,66,82.2,60.4,87.3z"/>
<path class="st0" d="M80.9,85.8C77,90.7,69.6,92,63.3,88.9C66.5,83.5,74.1,82,80.9,85.8z"/>
<path class="st0" d="M90.7,25.8c4.2,4.7,4.2,12,0,17.5C85.8,39.1,85.8,31,90.7,25.8z"/>
<path class="st0" d="M80.2,70.6c2.9-6.4,9.9-9.9,15.8-7.8C93.1,69.3,86.1,72.7,80.2,70.6z"/>
<path class="st0" d="M89.6,75.3c-3.4,5.7-10.3,7.7-17,5.3C75,75.2,83.2,72.6,89.6,75.3z"/>
<path class="st0" d="M53.8,0c4.7,2.9,5.4,12.2,2.3,16.6C51.3,14.4,50.1,5.8,53.8,0z"/>
<path class="st0" d="M48,33.9c4.7,0.9,8.1,6.4,7.8,12.7C50.6,46.1,47.2,40.6,48,33.9z"/>
<path class="st0" d="M48.3,44.1c4.6,2.2,6.6,7.8,5.1,14C48.2,56.2,46,50.1,48.3,44.1z"/>
<path class="st0" d="M45.7,53.9c4.4,3.4,5.6,8.3,3.7,14.7C44.5,66.5,42.7,59.9,45.7,53.9z"/>
<path class="st0" d="M60.9,69.8c-2.2,5-7.7,7.5-13.7,6.3C48.8,70.8,53.9,68.4,60.9,69.8z"/>
<path class="st0" d="M27.2,93.3c0.4-0.8,0.8-1.5,0.9-1.8c4,0.4,7.6,0.7,11.2,1.1c-0.7,0.3-1.5,0.8-2.8,1.3
	c5.3,1.8,10.1-0.4,14.8-1.5C44.9,97.7,33.1,97.9,27.2,93.3z"/>
<path class="st0" d="M53.6,23.5c-5.7-2-8.8-7.8-7-13C51.7,12.4,54.6,17.8,53.6,23.5z"/>
<path class="st0" d="M56.9,38.7c-0.6-6.6,2-11.5,7.1-13.4C65.2,31.3,62.2,36.9,56.9,38.7z"/>
<path class="st0" d="M55.5,58.5c0.8-5.9,4.6-9.8,10.4-10.7C66.5,52.9,61.7,58,55.5,58.5z"/>
<path class="st0" d="M63.9,59.4c-1,5.1-5.6,8.9-11.5,9.3C52,63.5,57.9,58.7,63.9,59.4z"/>
<path class="st0" d="M57.2,48.2c-0.3-6.5,3.4-11.8,8.4-12.2C65.9,42.3,63,46.6,57.2,48.2z"/>
<path class="st0" d="M60.3,14.8c2.5,5.4,0.6,12.2-3.9,14.1C53.8,24.8,55.8,17.3,60.3,14.8z"/>
<path class="st0" d="M55.3,35.6c-5.5-1.3-8.7-7-7.4-12.8C52.9,24,56,29.5,55.3,35.6z"/>
<path class="st0" d="M56.2,77.3c2.2,4.8,0.6,10.1-3.8,13.7C49.6,86.5,51,81.1,56.2,77.3z"/>
<path class="st0" d="M26.4,87c2-3.9,6.4-2.5,8.5-4.9c-0.1,0.4-0.2,0.9-0.3,1.4c0.2,0.3,0.3,0.4,0.5,0.7c3.2-2.5,6.4-5,9.4-7.3
	C44.1,81.7,34.8,87.4,26.4,87z"/>
<path class="st0" d="M44.9,74.9c-4-2.4-4.9-5.9-3.1-11.5C45.5,65,46.7,69.7,44.9,74.9z"/>
</svg>
